<?xml version="1.0" encoding="UTF-8" standalone="no"?>
<!-- Generator: Adobe Illustrator 16.0.0, SVG Export Plug-In . SVG Version: 6.00 Build 0)  -->

<svg
   xmlns:dc="http://purl.org/dc/elements/1.1/"
   xmlns:cc="http://creativecommons.org/ns#"
   xmlns:rdf="http://www.w3.org/1999/02/22-rdf-syntax-ns#"
   xmlns:svg="http://www.w3.org/2000/svg"
   xmlns="http://www.w3.org/2000/svg"
   xmlns:sodipodi="http://sodipodi.sourceforge.net/DTD/sodipodi-0.dtd"
   xmlns:inkscape="http://www.inkscape.org/namespaces/inkscape"
   version="1.1"
   x="0px"
   y="0px"
   width="24"
   height="24.000002"
   viewBox="0 0 24 24.000002"
   xml:space="preserve"
   id="svg2"
   inkscape:version="0.48.4 r9939"
   sodipodi:docname="christmas.svg"><metadata
   id="metadata12"><rdf:RDF><cc:Work
       rdf:about=""><dc:format>image/svg+xml</dc:format><dc:type
         rdf:resource="http://purl.org/dc/dcmitype/StillImage" /><dc:title></dc:title></cc:Work></rdf:RDF></metadata><defs
   id="defs10" /><sodipodi:namedview
   pagecolor="#ffffff"
   bordercolor="#666666"
   borderopacity="1"
   objecttolerance="10"
   gridtolerance="10"
   guidetolerance="10"
   inkscape:pageopacity="0"
   inkscape:pageshadow="2"
   inkscape:window-width="1920"
   inkscape:window-height="1057"
   id="namedview8"
   showgrid="false"
   inkscape:zoom="41.7193"
   inkscape:cx="13.482254"
   inkscape:cy="19.17189"
   inkscape:window-x="-8"
   inkscape:window-y="-8"
   inkscape:window-maximized="1"
   inkscape:current-layer="svg2"
   fit-margin-top="0"
   fit-margin-left="0"
   fit-margin-right="0"
   fit-margin-bottom="0" />
<g
   id="Artwork"
   transform="translate(-54.137999,-444.14001)">
</g>
<g
   id="Layer_2"
   transform="matrix(0.05606523,0,0,0.05656663,-2.3352595,-2.481101)">
	<path
   d="m 451.387,147.02 -70.792,-29.211 c 0,-0.049 0.002,-0.104 0.002,-0.154 0,-16.707 -6.617,-44.734 -50.933,-44.734 -14.332,0 -32.018,3.969 -47.489,10.752 7.001,-8.553 15.266,-15.668 23.539,-20.129 5.088,-2.746 6.988,-9.094 4.245,-14.182 -2.745,-5.088 -9.093,-6.988 -14.181,-4.244 -14.401,7.768 -27.904,21.271 -37.302,35.66 -9.112,-19.162 -23.089,-26.57 -23.965,-27.018 -5.149,-2.631 -11.454,-0.588 -14.083,4.561 -2.63,5.146 -0.588,11.451 4.559,14.082 0.126,0.064 7.758,4.342 13.634,15.568 -17.208,-9.377 -39.146,-15.051 -56.286,-15.051 -44.315,0 -50.932,28.027 -50.932,44.734 0,0.051 0.002,0.104 0.002,0.154 L 60.613,147.02 c -0.237,0.098 -0.469,0.203 -0.695,0.316 -0.006,0.004 -0.013,0.006 -0.02,0.01 -0.35,0.176 -2.803,1.166 -4.151,3.422 -1.521,2.545 -1.609,5.531 -1.609,5.926 v 207.875 c 0,4.006 2.287,7.66 5.89,9.412 l 191.105,92.93 c 1.519,0.801 3.184,1.229 4.864,1.229 1.562,0 3.127,-0.35 4.577,-1.055 l 191.396,-93.07 c 3.603,-1.752 5.89,-5.408 5.89,-9.414 V 156.775 c 0,-0.027 0.003,-0.053 0.003,-0.082 -10e-4,-4.238 -2.557,-8.058 -6.476,-9.673 z M 331.52,93.33 c 26.365,0 29.999,11.439 29.999,23.801 0,12.362 -3.634,23.801 -29.999,23.801 -15.324,0 -63.661,-7.902 -63.661,-19.029 0,-11.127 34.659,-28.573 63.661,-28.573 z m -150.28,0 c 29.002,0 63.661,17.445 63.661,28.572 0,11.127 -48.337,19.029 -63.661,19.029 -26.365,0 -29.999,-11.439 -29.999,-23.801 0,-12.362 3.634,-23.8 29.999,-23.8 z M 142.021,390.574 75.071,358.02 V 172.336 l 66.949,27.625 V 390.574 z M 92.079,156.68 135.638,138.707 c 5.731,12.467 18.67,23.68 46.698,23.68 9.461,0 20.533,-0.914 31.484,-2.922 L 158.377,183.959 92.079,156.68 z m 153.45,284.228 -82.575,-40.154 V 208.6 l 82.575,34.074 v 198.234 z m 10.509,-216.763 -70.84,-29.148 71.014,-31.375 70.691,31.365 -70.865,29.158 z m 93.008,176.64 -82.579,40.156 V 242.674 L 349.046,208.6 V 400.785 z M 298.653,159.551 c 10.796,1.947 21.686,2.836 31.011,2.836 28.028,0 40.966,-11.213 46.698,-23.678 l 43.592,17.984 -3.471,1.434 -62.802,25.84 -55.028,-24.416 z m 138.272,198.5 -66.946,32.555 V 199.961 l 54.943,-22.67 12.002,-4.939 v 185.699 z"
   id="path6"
   inkscape:connector-curvature="0" />
</g>
</svg>