<?xml version="1.0" encoding="UTF-8" standalone="no"?>
<!-- Generator: Adobe Illustrator 16.0.0, SVG Export Plug-In . SVG Version: 6.00 Build 0)  -->

<svg
   xmlns:dc="http://purl.org/dc/elements/1.1/"
   xmlns:cc="http://creativecommons.org/ns#"
   xmlns:rdf="http://www.w3.org/1999/02/22-rdf-syntax-ns#"
   xmlns:svg="http://www.w3.org/2000/svg"
   xmlns="http://www.w3.org/2000/svg"
   xmlns:sodipodi="http://sodipodi.sourceforge.net/DTD/sodipodi-0.dtd"
   xmlns:inkscape="http://www.inkscape.org/namespaces/inkscape"
   version="1.1"
   id="Layer_1"
   x="0px"
   y="0px"
   width="24"
   height="24"
   viewBox="0 0 24 24"
   enable-background="new 0 0 48 48"
   xml:space="preserve"
   inkscape:version="0.48.4 r9939"
   sodipodi:docname="gift2.svg"><metadata
   id="metadata19"><rdf:RDF><cc:Work
       rdf:about=""><dc:format>image/svg+xml</dc:format><dc:type
         rdf:resource="http://purl.org/dc/dcmitype/StillImage" /><dc:title></dc:title></cc:Work></rdf:RDF></metadata><defs
   id="defs17" /><sodipodi:namedview
   pagecolor="#ffffff"
   bordercolor="#666666"
   borderopacity="1"
   objecttolerance="10"
   gridtolerance="10"
   guidetolerance="10"
   inkscape:pageopacity="0"
   inkscape:pageshadow="2"
   inkscape:window-width="1920"
   inkscape:window-height="1057"
   id="namedview15"
   showgrid="false"
   inkscape:zoom="32"
   inkscape:cx="2.3166261"
   inkscape:cy="14.02959"
   inkscape:window-x="-8"
   inkscape:window-y="-8"
   inkscape:window-maximized="1"
   inkscape:current-layer="Layer_1" />
<g
   id="g3"
   transform="matrix(0.52394883,0,0,0.52394883,-0.5063529,-0.59311005)">
	<path
   d="m 28.377,46.938 h 10.766 c 1.551,0 2.801,-1.276 2.801,-2.827 V 20.991 H 28.377 v 25.947 z"
   id="path5"
   inkscape:connector-curvature="0" />
	<path
   d="m 5.841,44.111 c 0,1.551 1.251,2.827 2.802,2.827 H 19.407 V 20.992 H 5.841 v 23.119 z"
   id="path7"
   inkscape:connector-curvature="0" />
	<path
   d="M 42.105,10.983 H 28.377 v 8.303 h 13.728 c 1.551,0 2.804,-1.275 2.804,-2.826 v -2.636 c 0,-1.551 -1.253,-2.841 -2.804,-2.841 z"
   id="path9"
   inkscape:connector-curvature="0" />
	<path
   d="m 2.875,13.824 v 2.636 c 0,1.551 1.255,2.826 2.806,2.826 H 19.408 V 10.983 H 5.681 c -1.551,0 -2.806,1.29 -2.806,2.841 z"
   id="path11"
   inkscape:connector-curvature="0" />
	<path
   d="M 38.218,7.86 C 38.739,7.223 39.294,6.145 38.973,4.533 38.554,2.435 36.345,1.132 33.208,1.132 31.923,1.132 30.568,1.348 29.18,1.774 28.31,2.041 27.503,2.415 26.765,2.845 26.269,2.484 25.702,2.215 25.09,2.062 24.712,1.956 24.315,1.891 23.907,1.874 23.487,1.892 23.08,1.96 22.693,2.072 22.094,2.227 21.54,2.493 21.053,2.848 20.314,2.417 19.505,2.043 18.634,1.775 17.246,1.349 15.891,1.133 14.607,1.133 c -3.138,0 -5.346,1.303 -5.765,3.401 -0.321,1.611 0.233,2.69 0.755,3.326 1.219,1.485 3.574,2.16 7.413,2.16 h 6.897 6.898 c 3.839,0 6.194,-0.675 7.413,-2.16 z M 19.055,6.61 H 17.01 C 13.177,6.61 12.342,5.858 12.213,5.702 12.171,5.651 12.085,5.567 12.16,5.189 c 0.055,-0.151 0.775,-0.678 2.447,-0.678 0.935,0 1.984,0.173 3.035,0.496 0.544,0.167 1.06,0.37 1.544,0.637 -0.075,0.311 -0.119,0.634 -0.131,0.966 z M 28.637,5.64 C 29.118,5.375 29.632,5.167 30.173,5 c 1.051,-0.322 2.101,-0.489 3.035,-0.489 1.671,0 2.392,0.525 2.447,0.676 0.076,0.378 -0.012,0.464 -0.053,0.515 C 35.473,5.858 34.637,6.61 30.805,6.61 H 28.766 C 28.756,6.277 28.711,5.953 28.637,5.64 z"
   id="path13"
   inkscape:connector-curvature="0" />
</g>
</svg>