<?xml version="1.0" encoding="UTF-8" standalone="no"?>
<!-- Generator: Adobe Illustrator 16.0.4, SVG Export Plug-In . SVG Version: 6.00 Build 0)  -->

<svg
   xmlns:dc="http://purl.org/dc/elements/1.1/"
   xmlns:cc="http://creativecommons.org/ns#"
   xmlns:rdf="http://www.w3.org/1999/02/22-rdf-syntax-ns#"
   xmlns:svg="http://www.w3.org/2000/svg"
   xmlns="http://www.w3.org/2000/svg"
   xmlns:sodipodi="http://sodipodi.sourceforge.net/DTD/sodipodi-0.dtd"
   xmlns:inkscape="http://www.inkscape.org/namespaces/inkscape"
   version="1.1"
   id="Capa_1"
   x="0px"
   y="0px"
   width="24"
   height="24"
   viewBox="0 0 24 24"
   enable-background="new 0 0 512 512"
   xml:space="preserve"
   inkscape:version="0.48.4 r9939"
   sodipodi:docname="gift1.svg"><metadata
   id="metadata9"><rdf:RDF><cc:Work
       rdf:about=""><dc:format>image/svg+xml</dc:format><dc:type
         rdf:resource="http://purl.org/dc/dcmitype/StillImage" /><dc:title></dc:title></cc:Work></rdf:RDF></metadata><defs
   id="defs7" /><sodipodi:namedview
   pagecolor="#ffffff"
   bordercolor="#666666"
   borderopacity="1"
   objecttolerance="10"
   gridtolerance="10"
   guidetolerance="10"
   inkscape:pageopacity="0"
   inkscape:pageshadow="2"
   inkscape:window-width="1920"
   inkscape:window-height="1057"
   id="namedview5"
   showgrid="false"
   inkscape:zoom="10.429825"
   inkscape:cx="-3.9637198"
   inkscape:cy="25.554856"
   inkscape:window-x="-8"
   inkscape:window-y="-8"
   inkscape:window-maximized="1"
   inkscape:current-layer="Capa_1" />
<path
   d="M 18.178074,7.3052572 C 18.607915,6.9998202 19.020208,6.6598555 19.398067,6.2820431 20.190117,5.4899462 20.719984,4.515346 20.889919,3.5378051 21.076311,2.4662618 20.802841,1.4713623 20.13989,0.80831731 19.611067,0.27954129 18.894665,0 18.068136,0 16.89116,0 15.651104,0.56496367 14.666117,1.5499981 13.089702,3.1264137 12.170782,5.3024629 11.676344,6.8553541 11.310199,5.2949218 10.580612,3.1881177 9.1622271,1.7696851 8.4011007,1.0086537 7.4283502,0.61789344 6.5098573,0.61789344 5.7592126,0.61789344 5.044803,0.87884291 4.511711,1.4119823 3.3263402,2.5974005 3.4865049,4.6794472 4.8694612,6.0624035 5.3625239,6.5554662 5.9389177,6.9650079 6.5465193,7.3053046 H 1.4 V 13.376103 H 2.9176996 V 24 H 21.130095 V 13.376056 h 1.517699 V 7.3052572 h -4.46972 z M 15.873305,2.7573281 c 0.657448,-0.6574484 1.477907,-1.0499161 2.194688,-1.0499161 0.253788,0 0.609641,0.053451 0.864425,0.3082353 0.617277,0.6172295 0.270625,2.0467128 -0.741776,3.0590658 -1.042185,1.0421379 -2.44397,1.7588241 -3.662256,2.2305441 H 13.326747 C 13.767117,5.9405607 14.561301,4.069332 15.873305,2.7573281 z M 5.4298244,3.5321138 C 5.4131771,3.3158416 5.4286387,2.9096672 5.719041,2.6192649 5.9619678,2.3763381 6.283151,2.3253055 6.5098573,2.3253055 l 0,0 c 0.5041134,0 1.0308026,0.23752 1.4449449,0.6516622 0.8032425,0.8032425 1.4647224,2.0814301 1.9129655,3.6964522 0.012094,0.043634 0.023904,0.087031 0.035476,0.1300953 C 9.8601792,6.7919902 9.8167824,6.7801806 9.7731486,6.768039 8.1581265,6.3197485 6.8799863,5.6582686 6.0767438,4.8550261 5.7013977,4.4797274 5.4656326,3.9975258 5.4298244,3.5321138 z M 10.506198,22.482253 H 4.4353992 v -9.865047 h 6.0707988 v 9.865047 z m 0,-10.623897 H 2.9176996 V 8.8229568 h 7.5884984 v 3.0353992 z m 9.106197,10.623897 h -6.070798 v -9.865047 h 6.070798 v 9.865047 z m 1.5177,-10.623897 H 13.541597 V 8.8229568 h 7.588498 v 3.0353992 z"
   id="path3"
   inkscape:connector-curvature="0" />
</svg>