<?xml version="1.0" encoding="UTF-8"?>
<!-- Generator: Adobe Illustrator 18.0.0, SVG Export Plug-In . SVG Version: 6.00 Build 0)  -->
<!DOCTYPE svg PUBLIC "-//W3C//DTD SVG 1.1//EN" "http://www.w3.org/Graphics/SVG/1.1/DTD/svg11.dtd">
<svg version="1.1" id="Calque_1" xmlns="http://www.w3.org/2000/svg" xmlns:xlink="http://www.w3.org/1999/xlink" x="0px" y="0px" viewBox="0 0 155 40" enable-background="new 0 0 155 40" xml:space="preserve">
<path fill="#323335" d="M138.3,7.5c0-0.4-0.1-0.7-0.4-0.9c-0.3-0.2-0.6-0.4-0.9-0.4c-0.4,0-0.7,0.1-0.9,0.4  c-0.2,0.2-0.4,0.5-0.4,0.9V19c0,1.9,0.7,3.5,2,4.9c1.4,1.4,3,2,4.9,2c1.9,0,3.5-0.7,4.9-2c1.4-1.3,2-3,2-4.9c0-1-0.2-1.8-0.5-2.7  c-0.3-0.8-0.8-1.6-1.5-2.2c-1.4-1.3-3-2-4.9-2c-1.7,0-3.1,0.5-4.3,1.5V7.5z M140.9,23c-0.5-0.2-1-0.5-1.4-0.9  c-0.4-0.4-0.7-0.9-0.9-1.4c-0.2-0.5-0.3-1.1-0.3-1.7c0-0.6,0.1-1.2,0.3-1.7c0.2-0.5,0.5-1,0.9-1.4c0.4-0.4,0.8-0.7,1.4-0.9  c0.5-0.2,1.1-0.3,1.7-0.3c0.6,0,1.2,0.1,1.7,0.3c0.5,0.2,1,0.5,1.4,0.9c0.4,0.4,0.7,0.9,0.9,1.4c0.2,0.5,0.3,1.1,0.3,1.7  c0,0.6-0.1,1.2-0.3,1.7c-0.2,0.5-0.5,1-0.9,1.4c-0.4,0.4-0.8,0.7-1.4,0.9c-0.5,0.2-1.1,0.3-1.7,0.3C142,23.4,141.4,23.3,140.9,23   M129.6,22.4c-0.4,0.3-0.8,0.6-1.3,0.7c-0.5,0.2-1,0.2-1.5,0.2c-0.5,0-0.9-0.1-1.4-0.2c-0.4-0.1-0.8-0.4-1.2-0.6  c-0.4-0.3-0.7-0.6-1-1c-0.3-0.4-0.5-0.8-0.6-1.2h9.8c0.4,0,0.7-0.1,0.9-0.4c0.3-0.2,0.4-0.5,0.4-0.9c0-1-0.2-1.8-0.5-2.7  c-0.3-0.8-0.8-1.6-1.5-2.2c-1.4-1.3-3-2-4.9-2c-1.9,0-3.5,0.7-4.9,2c-1.4,1.4-2,3-2,4.9c0,1.9,0.7,3.5,2,4.9c1.4,1.4,3,2,4.9,2  c1.7,0,3.2-0.6,4.5-1.7c0.2-0.3,0.4-0.6,0.4-0.9c0-0.4-0.1-0.7-0.4-0.9c-0.2-0.2-0.5-0.4-0.9-0.4C130.1,22.1,129.8,22.2,129.6,22.4   M122.7,17.8c0.1-0.5,0.3-0.9,0.6-1.2c0.3-0.4,0.6-0.7,1-1c0.4-0.3,0.8-0.5,1.2-0.6c0.4-0.1,0.9-0.2,1.4-0.2c0.5,0,0.9,0.1,1.4,0.2  c0.4,0.1,0.8,0.4,1.2,0.6c0.4,0.3,0.7,0.6,1,1c0.3,0.4,0.5,0.8,0.6,1.2H122.7z M107.7,13.1l-2.5,7.5l-2.6-7.7  c-0.1-0.2-0.2-0.4-0.4-0.5c-0.2-0.1-0.5-0.2-0.7-0.2c-0.2,0-0.4,0-0.5,0.1c-0.2,0.1-0.3,0.2-0.4,0.3c-0.1,0.1-0.2,0.3-0.3,0.4  c-0.1,0.2-0.1,0.3-0.1,0.5c0,0.1,0,0.3,0.1,0.5l3.7,11.2c0.1,0.2,0.2,0.4,0.5,0.6c0.2,0.2,0.5,0.2,0.8,0.2c0.3,0,0.5-0.1,0.8-0.2  c0.2-0.2,0.4-0.4,0.4-0.6l2.5-7.6l2.5,7.6c0.1,0.2,0.2,0.4,0.4,0.6c0.2,0.2,0.5,0.2,0.8,0.2c0.3,0,0.6-0.1,0.8-0.2  c0.2-0.2,0.3-0.4,0.4-0.6l3.7-11.2c0.1-0.2,0.1-0.3,0.1-0.5c0-0.2,0-0.3-0.1-0.5c-0.1-0.2-0.2-0.3-0.3-0.4c-0.1-0.1-0.3-0.2-0.4-0.3  c-0.2-0.1-0.3-0.1-0.5-0.1c-0.3,0-0.6,0.1-0.8,0.2c-0.2,0.1-0.3,0.3-0.4,0.5l-2.6,7.8l-2.5-7.5c-0.2-0.6-0.6-1-1.2-1  C108.4,12.1,107.9,12.4,107.7,13.1 M92.9,15.1c0.5,0.2,1,0.5,1.4,0.9c0.4,0.4,0.7,0.9,0.9,1.4c0.2,0.5,0.3,1.1,0.3,1.7  c0,0.6-0.1,1.2-0.3,1.7s-0.5,1-0.9,1.4c-0.4,0.4-0.9,0.7-1.4,0.9c-0.5,0.2-1.1,0.3-1.7,0.3c-0.6,0-1.2-0.1-1.7-0.3  c-0.5-0.2-1-0.5-1.4-0.9c-0.4-0.4-0.7-0.9-0.9-1.4c-0.2-0.5-0.3-1.1-0.3-1.7c0-0.6,0.1-1.2,0.3-1.7s0.5-1,0.9-1.4  c0.4-0.4,0.8-0.7,1.4-0.9c0.5-0.2,1.1-0.3,1.7-0.3C91.8,14.7,92.4,14.8,92.9,15.1 M97.6,16.4c-0.3-0.8-0.8-1.6-1.5-2.2  c-1.4-1.3-3-2-4.9-2c-1.9,0-3.5,0.7-4.9,2c-1.4,1.4-2,3-2,4.9c0,1.9,0.7,3.5,2,4.9c1.3,1.4,3,2,4.9,2c1.9,0,3.5-0.7,4.9-2  c1.3-1.3,2-3,2-4.9C98.2,18.1,98,17.2,97.6,16.4 M82.1,17.6c0-0.7-0.1-1.5-0.4-2.1c-0.3-0.7-0.7-1.3-1.2-1.8  c-0.5-0.5-1.1-0.9-1.8-1.2c-0.7-0.3-1.4-0.4-2.1-0.4c-1.7,0-3.1,0.7-4.2,2c-0.5-0.7-1.2-1.2-1.9-1.5c-0.7-0.3-1.5-0.5-2.3-0.5  c-1.1,0-2.1,0.3-3,0.9c-0.1-0.3-0.2-0.5-0.5-0.6c-0.2-0.2-0.5-0.2-0.8-0.2c-0.4,0-0.7,0.1-0.9,0.4c-0.3,0.3-0.4,0.6-0.4,0.9v11.3  c0,0.4,0.1,0.7,0.4,0.9c0.3,0.3,0.6,0.4,0.9,0.4c0.4,0,0.7-0.1,0.9-0.4c0.3-0.3,0.4-0.6,0.4-0.9v-7c0-0.4,0.1-0.8,0.2-1.1  c0.2-0.4,0.4-0.7,0.6-0.9c0.3-0.3,0.6-0.5,0.9-0.6c0.4-0.2,0.7-0.2,1.1-0.2c0.4,0,0.8,0.1,1.1,0.2c0.4,0.2,0.7,0.4,0.9,0.6  c0.3,0.3,0.5,0.6,0.6,0.9c0.2,0.4,0.2,0.7,0.2,1.1v7c0,0.4,0.1,0.7,0.4,0.9c0.3,0.3,0.6,0.4,0.9,0.4c0.4,0,0.7-0.1,0.9-0.4  c0.3-0.3,0.4-0.6,0.4-0.9v-7c0-0.4,0.1-0.8,0.2-1.1c0.2-0.4,0.4-0.7,0.6-0.9c0.3-0.3,0.6-0.5,0.9-0.6c0.4-0.2,0.7-0.2,1.1-0.2  c0.4,0,0.8,0.1,1.2,0.2c0.4,0.2,0.7,0.4,0.9,0.6s0.5,0.6,0.6,0.9c0.2,0.4,0.2,0.7,0.2,1.1v7c0,0.4,0.1,0.7,0.4,0.9  c0.2,0.3,0.6,0.4,0.9,0.4c0.4,0,0.7-0.1,0.9-0.4c0.3-0.3,0.4-0.6,0.4-0.9V17.6z"/>
<path fill="#EAB261" d="M46.7,13.3c-0.3,0.4-0.4,0.9-0.6,1.6c-0.1,0.6-0.2,1.3-0.2,2.1c0,0.7,0.2,1.4,0.4,2.1  c0.3,0.6,0.7,1.2,1.3,1.6c0.6,0.4,1.4,0.6,2.4,0.6c0.7,0,1.3-0.2,1.8-0.5c0.5-0.4,1-0.8,1.4-1.2c0.4-0.5,0.8-1.1,1.2-1.8  c0.6,2,1,4,1.3,5.8c0.1,0.8,0.1,1.6,0.1,2.4c0,0.8,0,1.6-0.2,2.4c-0.1,0.8-0.4,1.5-0.7,2.1c-0.3,0.6-0.7,1.2-1.3,1.6  c-1.1,0.9-2,1.4-2.9,1.6c-0.9,0.2-1.5,0.1-2-0.2c-0.5-0.3-0.7-0.8-0.7-1.5c0-0.7,0.3-1.4,0.9-2.2c0.6-0.8,1.2-1.4,1.9-1.9  c0.6-0.5,1.2-0.9,1.7-1.2c0.5-0.3,0.9-0.6,1.2-0.8c0.3-0.2,0.5-0.4,0.5-0.6c0-0.2-0.3-0.2-0.9-0.3c-0.6,0-1.3,0.1-2.2,0.3  c-0.9,0.2-1.8,0.6-2.7,1.2c-0.9,0.5-1.8,1.3-2.4,2.2c-0.7,0.9-1.1,1.9-1.2,3c-0.1,1,0,2,0.3,3c0.3,0.9,0.8,1.7,1.5,2.4  c0.7,0.7,1.4,1.2,2.2,1.4c0.9,0.2,1.8,0.3,2.7,0.1c0.9-0.1,1.8-0.5,2.7-1c0.9-0.5,1.7-1.2,2.4-2.1c0.7-0.9,1.3-1.9,1.8-3.2  c0.5-1.2,0.8-2.6,1-4.2c0.2-1.6,0.1-3.3-0.2-5.2c-0.2-1.3-0.4-2.5-0.6-3.5c-0.2-1-0.4-1.8-0.7-2.5c-0.2-0.7-0.4-1.3-0.7-1.8  c-0.2-0.5-0.4-0.9-0.6-1.2c-0.5-0.7-0.9-1-1.4-1c-0.3,0-0.6,0-0.9,0.1c-0.2,0.1-0.5,0.2-0.8,0.4c-0.3,0.2-0.6,0.5-0.8,0.8  c-0.3,0.5-0.6,1-0.9,1.6c-0.3,0.5-0.5,1-0.8,1.4c-0.3,0.4-0.5,0.8-0.8,1c-0.3,0.3-0.5,0.4-0.8,0.3c-0.3,0-0.5-0.2-0.6-0.5  c-0.1-0.3-0.2-0.6-0.2-1.1c0-0.4,0-0.9,0-1.4c0-0.5,0-0.9-0.1-1.4c-0.1-0.4-0.2-0.8-0.4-1.1c-0.2-0.3-0.5-0.5-0.9-0.5  C47.2,12.7,47,12.9,46.7,13.3 M38.3,11.7c-0.3-0.1-0.7-0.1-1.3-0.1c-0.5,0-1.1,0.1-1.8,0.3c-0.7,0.2-1.3,0.4-2,0.8  c-0.7,0.4-1.3,0.8-1.8,1.4c-0.6,0.6-1,1.3-1.4,2.1c-0.5,1.3-0.8,2.5-0.7,3.6c0,1.1,0.3,2.1,0.7,3c0.4,0.9,1,1.5,1.6,2.1  c0.7,0.5,1.4,0.7,2.2,0.7c0.8,0,1.4-0.2,2-0.5c0.5-0.3,1-0.6,1.3-1c0.4-0.4,0.7-0.9,0.9-1.4c0.3,0.8,0.6,1.5,1.1,2.1  c0.2,0.2,0.4,0.5,0.7,0.7c0.2,0.2,0.5,0.4,0.8,0.5c0.3,0.1,0.7,0.2,1.1,0.2c0.4,0,0.8-0.1,1.3-0.3c0.9-0.3,1.6-0.8,2.2-1.4  c0.6-0.6,1-1.2,1.3-1.8c0.3-0.6,0.5-1.2,0.5-1.6c0-0.5,0-0.8-0.2-0.8c-0.1-0.1-0.3,0.1-0.5,0.4c-0.2,0.3-0.5,0.7-0.8,1.1  c-0.3,0.4-0.7,0.8-1,1.1c-0.4,0.3-0.8,0.4-1.3,0.3c-0.7-0.2-1.2-0.7-1.4-1.6c-0.2-0.9-0.3-2.3-0.3-4.1c0-0.9,0-1.5-0.2-1.9  c-0.2-0.4-0.4-0.6-0.7-0.6c-0.3-0.1-0.6-0.1-1,0c-0.3,0.1-0.6,0.1-0.9,0.2s-0.4,0.2-0.5,0.5c-0.1,0.3-0.2,0.7-0.2,1.1  c0,0.4,0,0.8,0,1.3c0,0.4,0,0.8,0,1c0,0.2-0.1,0.6-0.3,1c-0.2,0.5-0.5,0.9-0.8,1.3c-0.3,0.4-0.7,0.8-1,1.1c-0.4,0.3-0.8,0.5-1.1,0.5  c-0.3,0-0.5-0.3-0.7-0.9c-0.2-0.6-0.3-1.3-0.3-2.1c0-0.8,0.1-1.6,0.2-2.5c0.2-0.9,0.5-1.6,0.9-2.3c0.3-0.4,0.6-0.7,1.1-1  c0.4-0.2,0.8-0.5,1.2-0.7c0.4-0.2,0.7-0.4,1.1-0.6c0.3-0.2,0.5-0.4,0.6-0.7C38.7,12,38.6,11.8,38.3,11.7 M22,13.7  c0-1.1,0-2.1,0.1-3.1c0.1-1,0.2-2,0.3-2.8c0.2-0.9,0.4-1.7,0.6-2.3c0.3-0.7,0.6-1.2,0.9-1.5c0.4-0.4,0.8-0.5,1.2-0.5  c0.4,0,0.6,0.2,0.8,0.5c0.2,0.3,0.2,0.7,0.2,1.1c0,0.4,0,0.9-0.1,1.4C26,7,25.9,7.5,25.8,8c-0.2,1-0.5,2-0.9,3c-0.4,1-0.8,2-1.2,2.8  c-0.5,1-1,2-1.6,2.9C22,15.8,22,14.8,22,13.7 M28.3,3.4c-0.3-0.7-0.7-1.2-1.1-1.5c-0.5-0.4-1.2-0.7-1.9-0.8c-1-0.1-1.9,0-2.6,0.5  c-0.7,0.4-1.4,1-1.9,1.7c-0.5,0.7-1,1.6-1.4,2.5c-0.4,0.9-0.7,1.9-0.9,2.9c-0.2,0.9-0.4,2-0.5,3.3c-0.1,1.2-0.2,2.5-0.2,3.9  c0,1.3,0.2,2.7,0.4,4c0.2,1.3,0.7,2.5,1.2,3.5c0.6,1,1.3,1.9,2.3,2.5c0.9,0.7,2.1,1,3.5,1c0.6,0,1.1,0,1.5-0.2  c0.5-0.1,0.9-0.3,1.3-0.6c0.4-0.2,0.8-0.5,1.1-0.8c0.3-0.3,0.6-0.6,0.9-1c0.6-0.7,1-1.6,1.4-2.6c0-0.3,0-0.6-0.1-0.8  c-0.1-0.2-0.2-0.4-0.3-0.5c-0.1-0.1-0.3,0-0.5,0.1c-0.2,0.2-0.4,0.5-0.5,1c-0.2,0.5-0.5,1-1,1.4c-0.5,0.5-1.1,0.8-1.7,1  s-1.3,0.2-2-0.1c-0.7-0.2-1.3-0.8-1.9-1.7c-0.3-0.4-0.5-0.8-0.6-1.1c-0.1-0.3-0.2-0.6-0.3-0.8c-0.1-0.2-0.1-0.4-0.1-0.6  c1-1.1,1.9-2.4,2.8-3.8c0.4-0.6,0.7-1.3,1.1-2c0.4-0.7,0.7-1.5,1-2.3c0.3-0.8,0.6-1.7,0.8-2.6c0.2-0.9,0.4-1.9,0.5-2.8  C28.7,5,28.6,4.1,28.3,3.4 M4.2,12c-0.1,0.7-0.1,1.6-0.1,2.7c0,1.1-0.1,2.3-0.1,3.7c0,1.4,0,2.8,0,4.2c0,1.4,0,2.8,0,4.2  c0,1.4,0.1,2.6,0.1,3.7c0,1.1,0.1,2,0.2,2.7s0.1,1.1,0.2,1.2c0.2,0.3,0.5,0.5,0.9,0.7c0.4,0.2,0.7,0.4,1.1,0.4  c0.4,0.1,0.7,0,0.9-0.1c0.3-0.1,0.4-0.4,0.5-0.9c0-0.3,0.1-0.9,0.1-1.7c0-0.8,0-1.8,0-2.8c0-1.1,0-2.2,0-3.5c0-1.2,0-2.4,0.1-3.6  c0.1-1.2,0.1-2.2,0.3-3.2c0.1-1,0.3-1.7,0.6-2.2c0.5-1.2,1.2-2,1.9-2.3c0.8-0.4,1.5-0.2,2.3,0.4c0.5,0.4,0.7,0.8,0.9,1.3  c0.1,0.5,0.1,1,0,1.5s-0.4,1-0.7,1.4c-0.3,0.4-0.7,0.8-1.1,1c-0.5,0.2-0.9,0.4-1.2,0.6c-0.3,0.1-0.6,0.3-0.9,0.4  c-0.2,0.1-0.4,0.2-0.5,0.4c-0.1,0.1-0.2,0.3-0.3,0.4c-0.1,0.4,0.1,0.6,0.5,0.6c0.4,0.1,1.2,0,2.4-0.3c0.7-0.1,1.3-0.3,1.9-0.6  c0.6-0.3,1.2-0.6,1.6-1.1c0.5-0.5,0.9-1,1.2-1.7c0.3-0.7,0.5-1.4,0.5-2.3c0-0.8,0-1.5-0.3-2.2c-0.2-0.6-0.5-1.2-0.9-1.6  c-0.4-0.4-0.9-0.8-1.4-1c-0.5-0.2-1.1-0.4-1.6-0.4c-0.8-0.1-1.5,0-2,0.3c-0.6,0.3-1.1,0.6-1.5,1c-0.4,0.4-0.7,0.8-1,1.1  S8,15.2,7.9,15.3c-0.1,0.1-0.2,0.1-0.2-0.2c0-0.2-0.1-0.6-0.1-0.9c0-0.4-0.1-0.8-0.1-1.2c-0.1-0.4-0.2-0.7-0.3-0.9  c-0.1-0.2-0.3-0.4-0.5-0.6c-0.2-0.2-0.5-0.5-0.7-0.6c-0.3-0.2-0.5-0.3-0.8-0.3c-0.3,0-0.5,0.1-0.7,0.3C4.3,10.9,4.2,11.3,4.2,12"/>
</svg>